PathFileType	4	(X/Y/Z)	/Users/itak/Documents/Research/Walk-IL/dataset/trc/00566_00009.trc
DataRate	CameraRate	NumFrames	NumMarkers	Units	OrigDataRate	OrigDataStartFrame	OrigNumFrames
100.000000	100.000000	4	55	mm	100.000000	432	494
Frame#	Time	RPSI			LPSI			L3			STRN			T10			C7			CLAV			RBAK			LBAK			LSHO			LUPA			LAEL			LAOL			LWPS			LFRA			LHPS			LHTS			RSHO			RUPA			RAEL			RAOL			RWTS			RWPS			RFRA			RIFD			RHTS			RHPS			RBHD			LFHD			RFHD			LBHD			LHIP			RASI			LASI			LKNE			LTHI			LANK			LTIP			LTOE			LMT1			LMT5			LHEE			RKNE			RTHI			RANK			RTIP			RTOE			RMT1			RMT5			RHEE			RHIP			LWTS			LIFD			*53			*54			
		X1	Y1	Z1	X2	Y2	Z2	X3	Y3	Z3	X4	Y4	Z4	X5	Y5	Z5	X6	Y6	Z6	X7	Y7	Z7	X8	Y8	Z8	X9	Y9	Z9	X10	Y10	Z10	X11	Y11	Z11	X12	Y12	Z12	X13	Y13	Z13	X14	Y14	Z14	X15	Y15	Z15	X16	Y16	Z16	X17	Y17	Z17	X18	Y18	Z18	X19	Y19	Z19	X20	Y20	Z20	X21	Y21	Z21	X22	Y22	Z22	X23	Y23	Z23	X24	Y24	Z24	X25	Y25	Z25	X26	Y26	Z26	X27	Y27	Z27	X28	Y28	Z28	X29	Y29	Z29	X30	Y30	Z30	X31	Y31	Z31	X32	Y32	Z32	X33	Y33	Z33	X34	Y34	Z34	X35	Y35	Z35	X36	Y36	Z36	X37	Y37	Z37	X38	Y38	Z38	X39	Y39	Z39	X40	Y40	Z40	X41	Y41	Z41	X42	Y42	Z42	X43	Y43	Z43	X44	Y44	Z44	X45	Y45	Z45	X46	Y46	Z46	X47	Y47	Z47	X48	Y48	Z48	X49	Y49	Z49	X50	Y50	Z50	X51	Y51	Z51	X52	Y52	Z52	X53	Y53	Z53	X54	Y54	Z54	X55	Y55	Z55	

433	4.32	423.7741394042969	1017.852966308594	1120.345703125	557.68505859375	1022.074340820312	1121.531494140625	494.3363647460938	1111.431396484375	1122.31396484375	501.6104431152344	1307.013916015625	1341.644897460938	495.3580017089844	1236.837280273438	1104.796264648438	482.0426025390625	1513.9833984375	1142.960815429688	500.3153381347656	1417.52587890625	1318.930541992188	393.0455017089844	1384.179931640625	1080.211791992188	572.3709106445312	1460.140625	1105.849609375	660.48486328125	1485.4697265625	1199.353759765625	735.0676879882812	1355.222778320312	1190.056518554688	754.0204467773438	1134.561645507812	1218.938842773438	693.9190673828125	1122.974487304688	1138.605346679688	773.285888671875	872.456787109375	1283.256958007812	760.7095947265625	1050.019775390625	1246.9453125	763.8213500976562	814.0184326171875	1297.07373046875	727.8722534179688	825.257568359375	1353.425415039062	327.5409851074219	1476.135620117188	1210.323608398438	258.6975708007812	1409.895385742188	1197.286499023438	209.7472991943359	1121.378173828125	1200.714721679688	238.4830780029297	1103.184448242188	1144.853759765625	244.7740020751953	896.5955200195312	1330.555419921875	175.7580261230469	879.9762573242188	1285.557495117188	202.9614105224609	1066.08740234375	1209.958740234375	236.4282989501953	722.4959716796875	1331.992309570312	226.8954925537109	804.3670043945312	1354.516235351562	177.4133453369141	805.1588134765625	1299.504516601562	414.3737182617188	1700.065795898438	1254.642333984375	565.49853515625	1700.255249023438	1396.61328125	421.6764831542969	1698.149536132812	1394.332763671875	580.7813720703125	1699.849365234375	1263.6630859375	687.5770874023438	946.5738525390625	1250.96337890625	358.3002319335938	984.4747314453125	1331.658203125	636.0152587890625	975.74462890625	1328.813354492188	617.0086059570312	503.5618286132812	1279.676879882812	656.8491821289062	668.02880859375	1281.283325195312	602.8741455078125	38.02310943603516	1184.800659179688	616.9749755859375	258.4275207519531	1211.203491210938	532.298583984375	45.82127380371094	1393.687133789062	502.11376953125	50.57072067260742	1317.911254882812	611.3751220703125	40.75874328613281	1307.761962890625	551.71044921875	44.3990592956543	1113.208740234375	349.0832824707031	507.526123046875	1267.598999023438	304.2843627929688	796.802490234375	1283.936157226562	369.5157775878906	44.32725524902344	1170.655883789062	363.8657531738281	365.1394348144531	1261.203857421875	407.1993713378906	45.48018646240234	1392.550170898438	449.7562561035156	44.22761917114258	1327.0517578125	348.9748840332031	46.63362503051758	1301.98046875	422.3987426757812	32.11555480957031	1116.71728515625	300.5899047851562	948.982421875	1245.594482421875	709.0411376953125	902.950927734375	1333.901977539062	701.1029052734375	730.6337890625	1334.498657226562	nan	nan	nan	nan	nan	nan	
434	4.33	423.76318359375	1017.715454101562	1122.0712890625	557.6609497070312	1021.905151367188	1123.442626953125	494.324462890625	1111.198852539062	1124.217895507812	501.5038146972656	1306.828491210938	1343.347778320312	495.5608520507812	1236.559326171875	1106.7646484375	482.0777587890625	1513.759643554688	1144.506103515625	500.1821594238281	1417.2939453125	1320.499267578125	393.2841186523438	1383.817626953125	1081.671630859375	572.416748046875	1459.930908203125	1107.586181640625	660.519775390625	1485.294311523438	1201.134399414062	735.0580444335938	1355.00439453125	1191.263671875	753.8975219726562	1134.078002929688	1218.175537109375	693.645751953125	1123.427612304688	1137.856323242188	773.24267578125	871.0354614257812	1278.779174804688	760.5736083984375	1049.14208984375	1245.074951171875	763.617919921875	812.3342895507812	1291.621704101562	728.0003051757812	823.2681274414062	1348.605224609375	327.5598754882812	1475.833618164062	1211.53759765625	258.6233825683594	1409.504516601562	1198.466430664062	209.7110290527344	1121.080444335938	1201.9609375	238.5485992431641	1102.83203125	1146.247436523438	243.4255523681641	896.118408203125	1331.669921875	174.7050170898438	879.7188720703125	1286.347045898438	202.7469635009766	1065.810180664062	1211.116577148438	234.5061340332031	722.0831298828125	1333.077880859375	225.1738739013672	803.9498901367188	1355.522827148438	176.0879211425781	804.893798828125	1300.24462890625	414.0023193359375	1699.840087890625	1255.754272460938	565.2932739257812	1700.622436523438	1397.557373046875	421.4827270507812	1698.373901367188	1395.404296875	580.4801635742188	1699.821533203125	1264.619873046875	687.289306640625	946.2975463867188	1252.7373046875	358.1148376464844	984.212890625	1333.416870117188	635.6262817382812	975.3682250976562	1330.602416992188	616.9063110351562	503.3243408203125	1280.161743164062	656.7909545898438	667.7945556640625	1282.296508789062	602.8717651367188	37.99393463134766	1184.780395507812	616.9692993164062	258.3466186523438	1211.400512695312	532.2949829101562	45.82332992553711	1393.665161132812	502.1061401367188	50.55436325073242	1317.898803710938	611.3719482421875	40.7573356628418	1307.75537109375	551.69580078125	44.35137939453125	1113.1865234375	349.0454711914062	507.3852844238281	1267.520263671875	304.1002502441406	796.6067504882812	1284.931884765625	369.5783996582031	44.34533309936523	1170.643188476562	363.8171691894531	365.0600891113281	1260.98974609375	407.1829223632812	45.49592971801758	1392.550170898438	449.7964172363281	44.18881607055664	1327.060668945312	349.0290832519531	46.62615203857422	1301.976440429688	422.4520568847656	32.08976745605469	1116.698852539062	300.3763122558594	948.8089599609375	1247.318115234375	708.9482421875	900.7625732421875	1329.93408203125	701.2894287109375	728.80859375	1329.28515625	nan	nan	nan	nan	nan	nan	
435	4.34	423.756591796875	1017.616577148438	1123.720336914062	557.64111328125	1021.7724609375	1125.288452148438	494.3042907714844	1110.995727539062	1125.978759765625	501.3699951171875	1306.656372070312	1344.989990234375	495.7543640136719	1236.329833984375	1108.630004882812	482.1428833007812	1513.561401367188	1146.021362304688	500.0373229980469	1417.07568359375	1322.0283203125	393.5460815429688	1383.519287109375	1083.061645507812	572.4754638671875	1459.749267578125	1109.302368164062	660.5606079101562	1485.114868164062	1202.899047851562	735.0735473632812	1354.79638671875	1192.490112304688	753.8202514648438	1133.650634765625	1217.544555664062	693.5515747070312	1123.894287109375	1137.135864257812	773.3399658203125	869.74755859375	1274.433227539062	760.4963989257812	1048.341430664062	1243.339477539062	763.5830688476562	810.7861328125	1286.263061523438	728.27001953125	821.500244140625	1343.911499023438	327.6039428710938	1475.6025390625	1212.6611328125	258.5532531738281	1409.1923828125	1199.552368164062	209.7568054199219	1120.844116210938	1203.062622070312	238.7030487060547	1102.532592773438	1147.532470703125	242.2187805175781	895.8140869140625	1332.822021484375	173.7905731201172	879.5717163085938	1287.147338867188	202.5973205566406	1065.582763671875	1212.1728515625	232.7520141601562	721.8424072265625	1334.350219726562	223.5879821777344	803.7174072265625	1356.648315429688	174.9322052001953	804.751220703125	1301.056030273438	413.6828918457031	1699.632690429688	1256.897216796875	565.1094360351562	1700.934204101562	1398.554321289062	421.306884765625	1698.564208984375	1396.51416015625	580.20849609375	1699.784912109375	1265.630981445312	687.0811767578125	946.1221923828125	1254.501220703125	357.9481506347656	984.0057983398438	1335.116577148438	635.2924194335938	975.03271484375	1332.363647460938	616.8200073242188	503.1106262207031	1280.533569335938	656.7552490234375	667.5423583984375	1283.205932617188	602.8709106445312	37.96586990356445	1184.758666992188	616.9686889648438	258.2808227539062	1211.538452148438	532.2952880859375	45.83002090454102	1393.640014648438	502.1039123535156	50.54233551025391	1317.885375976562	611.3732299804688	40.75390243530273	1307.750610351562	551.6832275390625	44.31044006347656	1113.1669921875	349.0404052734375	507.2812194824219	1267.5166015625	304.0140380859375	796.4578857421875	1285.96044921875	369.6399841308594	44.36588287353516	1170.633422851562	363.7881469726562	364.9967346191406	1260.841186523438	407.1657409667969	45.51222229003906	1392.553466796875	449.8384704589844	44.15292358398438	1327.072631835938	349.0794677734375	46.62118911743164	1301.976806640625	422.5066833496094	32.08049011230469	1116.676635742188	300.1832275390625	948.6917724609375	1248.981567382812	708.865966796875	898.6369018554688	1325.969116210938	701.6177368164062	727.2051391601562	1324.1982421875	nan	nan	nan	nan	nan	nan	
436	4.350000000000001	423.7621459960938	1017.577697753906	1125.298706054688	557.633056640625	1021.701171875	1127.077270507812	494.280517578125	1110.828125	1127.625854492188	501.2113037109375	1306.506713867188	1346.571533203125	495.9356994628906	1236.153686523438	1110.387084960938	482.2310485839844	1513.3955078125	1147.501708984375	499.8875122070312	1416.885620117188	1323.518920898438	393.8206176757812	1383.291625976562	1084.391723632812	572.541748046875	1459.601440429688	1110.989379882812	660.602294921875	1484.946166992188	1204.635375976562	735.1078491210938	1354.615356445312	1193.723754882812	753.7719116210938	1133.2939453125	1217.028564453125	693.5877685546875	1124.385620117188	1136.451782226562	773.5751342773438	868.6162719726562	1270.226684570312	760.4700927734375	1047.631958007812	1241.726440429688	763.7291870117188	809.4014892578125	1281.008911132812	728.7012329101562	819.9684448242188	1339.359741210938	327.6659545898438	1475.448608398438	1213.712280273438	258.4961547851562	1408.9755859375	1200.556640625	209.8804931640625	1120.682983398438	1204.0224609375	238.9375610351562	1102.3037109375	1148.710083007812	241.1648406982422	895.6881103515625	1334.011474609375	173.0223236083984	879.5321655273438	1287.95849609375	202.5110778808594	1065.41748046875	1213.126953125	231.2042541503906	721.766845703125	1335.775634765625	222.1653137207031	803.6669311523438	1357.877075195312	173.9702301025391	804.7289428710938	1301.931030273438	413.4210815429688	1699.451904296875	1258.050903320312	564.9462280273438	1701.201538085938	1399.596801757812	421.1478881835938	1698.732666015625	1397.650390625	579.9688720703125	1699.748291015625	1266.68701171875	687.0223999023438	946.0823364257812	1256.273559570312	357.8004455566406	983.859619140625	1336.7568359375	635.010009765625	974.7379150390625	1334.092651367188	616.7517700195312	502.9265441894531	1280.815551757812	656.744873046875	667.2866821289062	1284.020874023438	602.869873046875	37.9420166015625	1184.737548828125	616.9752197265625	258.2327880859375	1211.626220703125	532.3003540039062	45.83924102783203	1393.615112304688	502.1080627441406	50.53642654418945	1317.873413085938	611.380859375	40.74913787841797	1307.746704101562	551.6742553710938	44.27937698364258	1113.150390625	349.0763854980469	507.2101745605469	1267.56298828125	304.02001953125	796.3479614257812	1287.02685546875	369.7032165527344	44.38998794555664	1170.62451171875	363.7793884277344	364.9570922851562	1260.736572265625	407.1497497558594	45.52790832519531	1392.560791015625	449.8799438476562	44.12172317504883	1327.085571289062	349.1250915527344	46.61879730224609	1301.9794921875	422.56396484375	32.08781051635742	1116.652465820312	300.0117797851562	948.6356201171875	1250.583374023438	708.8204956054688	896.6157836914062	1322.025390625	702.1075439453125	725.8378295898438	1319.253051757812	nan	nan	nan	nan	nan	nan	
